<svg xmlns="http://www.w3.org/2000/svg" xmlns:xlink="http://www.w3.org/1999/xlink" viewBox="0 0 4099.37 2572.25"><defs><style>.cls-1{fill:#2b3278;}.cls-2{clip-path:url(#clip-path);}.cls-3{fill:#fff;}.cls-4{fill:#76cbe9;}.cls-5{fill:#a5def6;}</style><clipPath id="clip-path" transform="translate(219 411.31)"><rect class="cls-1" width="3840" height="2160"/></clipPath></defs><g id="Capa_2" data-name="Capa 2"><g id="Layer_1" data-name="Layer 1"><rect class="cls-1" x="219" y="411.31" width="3840" height="2160"/><g class="cls-2"><path class="cls-3" d="M3268.3,557.32c-9.11,25.45-17.11,51-27,75.81-19.7,49.64-45.24,97-75.33,142.16,37.45-39.37,67.68-85.93,89.88-136a671,671,0,0,0,28-76.8c7.76-25.56,14.89-51,21.92-76.75q13.82-10,27.51-20.23l-17.9,71.81c-6.58,26.58-15.14,52.65-22.46,79.07-7.89,25.79-18.85,50.67-31.68,74.75-6.61,11.94-14,23.64-20.77,35.6L3220,762.81c9.3-10.32,17.52-21.46,26.08-32.4l12.58-16.63c4.17-5.57,8.44-11,12.19-17A329.44,329.44,0,0,0,3308,621.21c8.23-26.57,16.73-53.1,22.24-80.45a597.34,597.34,0,0,0,11.58-81.64c1.83-1.37,3.68-2.72,5.5-4.09q11.37-8.58,22.64-17.32c-8.84,25.32-15.42,51.3-21.36,77.23-6.93,30.08-12.45,60.3-19.37,90.11-13.72,59.48-31.66,118.27-63.81,171.28,20-23.61,36.08-50.74,49-79.13S3337,639,3345,609s14.57-60.32,20.08-90.63c5.4-29.53,10.43-58.94,15.15-88.62q16-12.45,31.69-25.19c-6,19.89-11.34,39.92-16.55,60L3377,536.89c-6.18,24.06-12.55,48-19.44,71.87s-14.29,47.59-22,71.56c13.34-21.36,24.19-44.22,33.48-67.62a663.46,663.46,0,0,0,23.6-71.66q9.85-36.37,17.12-73.23c4.72-23.58,8.84-47.3,11.94-71.23q13.38-10.93,26.6-22.07c-5.49,29-10.92,57.83-16.93,86.53-1.82,7.94-3.45,15.9-5.13,23.86l-5.44,23.78-5.58,23.75-6,23.66c-8,31.54-17,62.84-26.34,94.1s-19.6,62.31-29.58,93.68a773.31,773.31,0,0,0,41.78-89.43,934.05,934.05,0,0,0,31.48-93.73c4.39-15.9,8.24-32,12-48,3.33-16.16,6.62-32.33,9.16-48.64a685.53,685.53,0,0,0,8.91-96.66q16.32-13.9,32.37-28.15c-3.67,30.06-6.58,59.9-10.46,89.62-3.66,30.22-8.08,60.29-13,90.31q-4,22.47-8.35,44.9c-3.14,14.9-6.26,29.83-9.66,44.72-6.78,29.78-14.57,59.38-22.48,89.19a657.69,657.69,0,0,0,34.77-85.76l6.95-22.12,6.23-22.35,5.68-22.5,4.88-22.7a711.9,711.9,0,0,0,13-91.92c2.06-30.89,2.46-61.92-.68-92.76a3.3,3.3,0,0,0-2.15-2.73q18.17-16.2,36-32.84c-1.26,25.47-1.12,50.8-1.27,76,.05,26.74-.23,53.36-1.27,79.91a757.53,757.53,0,0,1-7.53,79.26,566.93,566.93,0,0,1-17.68,78.21c13.22-23.63,22.62-49.43,29.4-75.81s10.8-53.5,12.86-80.63,2.1-54.34.82-81.35a749.88,749.88,0,0,0-8.53-80.55,3.08,3.08,0,0,0-.4-1.11c4-3.81,8.11-7.58,12.12-11.43Q3559.32,274,3570.3,263c-.9,24.58-1.53,49-2.66,73.46-1.07,26-2.64,51.91-4.5,77.81s-4.47,51.74-6.73,77.68-4.85,51.91-6.21,78.33c9.25-24.81,15.55-50.45,20.63-76.3a688.37,688.37,0,0,0,10.1-78.36c2.08-26.27,2.77-52.65,2.28-79a655.87,655.87,0,0,0-6.14-78.71l-1.85.09q18.84-19,37.09-38.71c.05,23.37.4,46.63.42,69.87,0,28,0,56-1.17,84-2.2,56-7.74,111.87-15.59,167.84,16-54.23,25.72-110.41,30.07-167,2.1-28.3,3.21-56.72,2.13-85.1a538.85,538.85,0,0,0-8.16-77.91q9.79-10.71,19.44-21.59c4-4.6,7.84-9.3,11.75-13.95-.12,21.31-.11,42.58-.2,63.84,0,29.7-.27,59.38-.67,89.08s-1.39,59.39-2.44,89.12l-3.74,89.36q8.74-44,13.64-88.62c3.4-29.71,5.59-59.55,6.87-89.44s1.48-59.83.56-89.73c-.87-24.69-2.51-49.35-5.34-73.91q12.67-15.39,24.83-31.24c1.06,22.94,3.07,45.68,5,68.38.6,7.63,1.2,15.27,2.05,22.87l2,22.85,2,22.83,1.48,22.85c1.82,30.47,2.56,61,1.59,91.53a810.8,810.8,0,0,1-7.76,91.76c10.12-29.28,16.44-59.9,20.45-90.77a670.85,670.85,0,0,0,4.6-93.23l-.79-23.31L3714,246.34c-1.36-15.47-2.64-30.93-4.86-46.28a680.45,680.45,0,0,0-15.28-78.35c9.16-12.23,18.16-24.58,26.8-37.23,1.45-2.13,2.79-4.34,4.22-6.47,1.54,21.41,4.68,42.25,7.83,63.14,4.45,25.62,7.68,51.43,10.34,77.35q3.73,38.89,5.18,78.12c.45,13.07.67,26.17.84,39.31s0,26.17-1.89,39.25c4.39-12.48,6.64-25.75,8.34-38.85l2.3-19.72c.55-6.58,1.23-13.18,1.64-19.79a708.11,708.11,0,0,0,1.13-79.54c-.89-26.56-3.75-53-7.5-79.36-4.06-24.52-10-48.84-20.5-71.75,8.61-13.41,16.89-27.07,24.62-41.07,6.06,18,11.86,36,17,54.13,7.73,26.6,14.17,53.48,19.53,80.58s9.06,54.53,11.75,82.13,3.84,55.41,4.47,83.5h.13c5.18-27.64,7.11-55.9,6.75-84.12a499.45,499.45,0,0,0-8.36-84.3,478.92,478.92,0,0,0-22.43-81.72,415.54,415.54,0,0,0-25.78-56.06q11.23-20.8,21.1-42.42c7.65,18.87,15,37.7,21.67,56.76,9.28,26.1,17.29,52.55,24.23,79.29s12.26,53.9,16.57,81.3,7.09,55.08,9.37,83.09h.13a427.68,427.68,0,0,0,1.79-84.37,500.15,500.15,0,0,0-13.3-83.66A479.12,479.12,0,0,0,3814.68,29a411.59,411.59,0,0,0-30.86-57.28c.59-1.34,1.27-2.63,1.86-4,6.44-14.82,12.29-30,17.44-45.4,63.8,122.44,77.25,214.75,77.25,214.75C3864.75,3.17,3817-63.07,3803.68-79.3a454.78,454.78,0,0,0,16.55-65.65,16.55,16.55,0,0,0-14.44-19.29h0a16.36,16.36,0,0,0-18,13.89,410.71,410.71,0,0,1-9.13,44.72c-25.37-4.11-50.91-3.56-76.2-1.28a763.47,763.47,0,0,0-77,12.71,730.1,730.1,0,0,0-75.18,20.49A617,617,0,0,0,3478.05-45c25-6.52,50-12.65,75.1-18.16s50.22-10.24,75.45-14.29,50.54-7.32,75.93-9.76c24-2.91,47.88-5.64,72-10.71q-4.71,16.83-10.66,33.38a2.33,2.33,0,0,0-.38-.08c-33.33.27-66.05,6.09-98.34,13.28q-48.54,10.53-96.31,24c-31.83,9-63.22,19.49-94.31,30.64s-61.67,23.73-91.71,37.36q46.62-16.6,93.81-31.07c31.42-9.76,63.2-18.27,95.05-26.3s63.93-15.15,96.18-21.25c31.24-5.73,62.45-11,93.37-19.3q-2.52,6.72-5.19,13.38c-2.92,7.14-6.12,14.19-9.29,21.25a3.16,3.16,0,0,0-1.23-.17c-23.24,1.49-45.82,6.07-68.21,11.42C3657-5.7,3634.66,0,3612.45,6S3568,18.21,3545.93,24.66q-16.6,4.77-33.09,9.94c-11,3.39-22,6.74-33,10.4,11.44-1.71,22.78-3.75,34.14-5.73s22.7-4,34-6.2q33.91-6.46,67.64-13.66c22.51-4.67,44.91-9.77,67.31-14.87,21.1-5.11,42-11,62.39-19.45-5.87,12.61-12.27,25-18.93,37.29a3.27,3.27,0,0,0-1.55-.36c-22,.77-43.13,5.33-64.09,10.57s-42,10.45-62.85,16-41.8,11.06-62.62,16.91-41.61,11.9-62.31,18.31c21.41-3.35,42.73-7.07,64-11s42.5-8,63.68-12.35,42.33-8.77,63.46-13.3c19.66-4.19,39.14-9.12,57.94-17-7.5,13.42-15.29,26.7-23.68,39.64-1.84,2.85-3.79,5.63-5.66,8.45-13.3-2.4-26.55-2.68-39.72-2-14.32,1-28.49,3.4-42.66,5.51-28.34,4.46-56.42,10.41-84.16,17.54s-55.1,15.65-81.93,25.52c-13.44,4.86-26.65,10.32-39.8,15.84l-19.6,8.58-19.28,9.24,40.64-13,20.43-6,20.47-5.71c27.35-7.38,54.84-14,82.52-19.55s55.49-10.24,83.41-14l21-2.54c7-.67,14-1.47,21-2.57,7-.91,13.93-2.29,20.88-3.83,3.22-.7,6.45-1.47,9.67-2.34q-16.27,23.94-33.86,47a3.67,3.67,0,0,0-.65-.26,164.42,164.42,0,0,0-32.59-2.12,255,255,0,0,0-32.21,2.77c-21.29,3.38-42.53,7.05-63.52,11.9q-31.55,7-62.41,16.54a642,642,0,0,0-60.69,21.8l63.14-11.74q31.5-5.66,63-10.55c21-3.09,42-6.28,63.11-8.66,10.53-1.29,21-2.87,31.46-5.06a229.71,229.71,0,0,0,25-6.18q-11.61,15-23.63,29.76c-3.84,4.59-7.78,9.1-11.67,13.65a4.25,4.25,0,0,0-.49-.21c-25.22-5.06-50.83-5.57-76.22-4-12.71.78-25.35,2.35-38,4l-18.89,2.72-18.78,3.31a679.12,679.12,0,0,0-74,18.19,578.16,578.16,0,0,0-71.08,26.74c24.57-6,49.07-11.59,73.66-16.44s49.25-8.91,74-12.19c12.39-1.49,24.75-3,37.15-4.29l37.24-3.1c23-1.91,45.93-3.78,69.15-7.41q-19.76,22.77-40.41,44.81c-22.4-3.81-45-4.39-67.41-3.5-22.66.78-45.14,4-67.55,7.18q-16.77,2.79-33.44,6c-11.08,2.33-22.12,4.8-33.11,7.48a596.27,596.27,0,0,0-64.81,20l67-8.37c11.12-1.37,22.22-2.68,33.33-3.86s22.2-2.43,33.31-3.45c22.18-2.47,44.44-3.61,66.61-5.9,19.48-1.9,38.94-4,58.52-7.47q-10.76,11.35-21.71,22.55c-9.61,9.7-19.37,19.27-29.18,28.78a3.65,3.65,0,0,0-1-.65c-18.9-7.42-38.62-10-58.28-10.34-9.85-.1-19.68.54-29.49,1.13s-19.6,1.53-29.34,2.86a467,467,0,0,0-57.8,11.06,375.74,375.74,0,0,0-55.58,18.78c19.44-2.24,38.63-4.46,57.78-6.3s38.24-3.17,57.3-4.07l28.59-1,28.55-.18c17.23-.37,34.42-1.26,52.09-4.42q-22.76,21.81-46.16,43a3.3,3.3,0,0,0-1.73-1.15c-19.58-4.94-39.39-6.34-59.13-6.3-9.88,0-19.74.71-29.58,1.43s-19.69,1.49-29.5,2.64c-19.62,2.17-39.16,5-58.55,8.74a554.79,554.79,0,0,0-57.53,14c19.78-.48,39.37-1.44,58.91-2.29l58.5-2.44,29.18-1c9.73-.25,19.45-.36,29.16-.95,17.66-1,35.3-2.62,53.08-6.16q-21.24,19-43,37.49c-22.55-3.23-45.1-3.26-67.54-2-22.52,1.42-44.92,4.28-67.27,7.26-22.34,3.17-44.58,7-66.66,11.55s-44,9.88-65.64,16.35c22.51-1.73,44.87-3.84,67.2-5.84l66.91-5.78,66.83-5.22c18.63-1.76,37.23-3.94,55.83-7.5q-23.88,20.08-48.3,39.55a152.3,152.3,0,0,0-38.14-7.46c-14.09-1.24-28.25-.29-42.3.69a341.46,341.46,0,0,0-41.79,6.32,258.48,258.48,0,0,0-40.38,12.24l41.73-1.5c13.78-.49,27.49-.78,41.16-.74,13.68-.25,27.3.58,41,.35,9.06-.07,18.14-.23,27.33-.85q-20.91,16.49-42.11,32.64a3.28,3.28,0,0,0-1.36-.9c-15.95-5.18-32.25-7-48.54-7.43q-24.45-.14-48.86,1.69c-32.49,2.41-64.85,7-96.42,15.22,32.6.31,64.78-.12,96.92.23,16.06.15,32.09.45,48.12.8a269.8,269.8,0,0,0,40.95-2.69q-20.92,15.76-42.13,31.14a3.51,3.51,0,0,0-1.95-2.79c-14.58-6.91-29.79-8.2-44.88-7.71s-30.18,1.15-45.18,2.84a451.1,451.1,0,0,0-44.67,6.91,361.33,361.33,0,0,0-43.64,11.57l44.81-1.69q22.29-.69,44.42-1c14.77,0,29.5-.06,44.21.38,13.12.51,26.13.3,39.53-3.28q-19.65,14.1-39.58,27.8a3.56,3.56,0,0,0-2.25-3.2c-14.22-5.59-28.66-4.76-42.81-3a415.33,415.33,0,0,0-42.29,6.59,400.15,400.15,0,0,0-41.29,10.82A359.6,359.6,0,0,0,3022.65,581c13.92-2.67,27.74-5.26,41.59-7.4s27.65-4.1,41.49-5.63,27.67-2.67,41.52-3.49c12-.46,23.86-.82,35.84-4.6q-21.68,14.79-43.7,29c-22.11,10.13-42.31,22.62-62.25,35.34l-30,19.58c-10,6.46-20.29,12.53-30.5,18.69-20.53,12.09-41.55,23.35-63.21,33.45a622.35,622.35,0,0,1-67,26.63c24.17-2.43,48.11-8,71.33-15.67a477.32,477.32,0,0,0,67.61-28.49c11-5.45,21.57-11.54,32.12-17.68s21-12.49,31-19.4c19.68-13.6,38.25-28.68,54.61-46.51q24.86-15.24,49.3-31.09c-24.63,33.8-46.63,68.67-72.74,100.86a621.21,621.21,0,0,1-46.44,51.86,549.4,549.4,0,0,1-52.65,46.32,357.51,357.51,0,0,0,58.87-39.43,454.7,454.7,0,0,0,51.18-49.48c31.34-35.63,59.19-74.88,76.64-119.16.09-.23,0-.47,0-.71q17.61-11.62,35-23.52c-9.44,19.35-18.06,38.84-26.81,58.3l-15.37,34.11-8.06,16.89-8.32,16.79Q3166.94,690,3148,722.52t-39.55,64.21a672.93,672.93,0,0,0,47.17-59.31,756.14,756.14,0,0,0,40.67-64.16c6.31-11,12.12-22.27,17.92-33.56l8.4-17.07,7.79-17.36c9.88-23.35,18.16-47.44,23.09-72.44q20.28-14,40.34-28.4C3283.84,514.88,3275.85,536.15,3268.3,557.32Z" transform="translate(219 411.31)"/><path class="cls-3" d="M1355.6,292.23c22.58,14.86,45.57,28.68,67.29,44.17,43.58,30.86,83.56,66.87,120.34,106.77-29.41-45.69-67.51-86.05-111-119.47a672.35,672.35,0,0,0-68-45.39c-23-13.57-46.06-26.52-69.39-39.42q-6.49-15.79-13.17-31.51l65.55,34.35c24.27,12.68,47.58,27.15,71.53,40.5,23.2,13.76,44.78,30.28,65.15,48.44,10,9.24,19.68,19.13,29.69,28.59l30.26,28.44c-7.84-11.48-16.72-22.1-25.33-33l-13.19-16.15c-4.43-5.37-8.74-10.81-13.62-15.85a329.38,329.38,0,0,0-64.68-54c-23.87-14.27-47.65-28.8-72.92-40.61a597.56,597.56,0,0,0-76.6-30.53c-.9-2.1-1.77-4.21-2.68-6.31q-5.64-13.08-11.47-26.09c22.51,14.57,46.2,27.1,70,39,27.6,13.83,55.66,26.33,83,40.1,54.56,27.37,107.45,58.7,151.37,102.45-18.21-25.05-40.79-47-65.34-66.26s-51.21-35.72-78.5-50.6-55.17-28.4-83.33-40.91c-27.42-12.22-54.81-24.06-82.53-35.65q-8.34-18.45-17-36.74c17.92,10.53,36.12,20.44,54.39,30.25l66,34.95c21.93,11.69,43.71,23.54,65.26,35.87s42.86,25.11,64.35,38.23c-17.61-18-37.26-33.95-57.81-48.5a665,665,0,0,0-64-39.85q-33-18.16-67.12-33.94c-21.8-10.15-43.87-19.76-66.39-28.42q-7.47-15.59-15.17-31.06c26.86,12.18,53.62,24.27,80.08,36.89,7.29,3.64,14.64,7.1,22,10.61l21.82,10.91,21.76,11,21.58,11.38c28.77,15.2,57.06,31.32,85.22,47.81s55.92,33.77,84,50.88a771.38,771.38,0,0,0-77-61.72,932.47,932.47,0,0,0-83.64-52.73c-14.42-8-29.1-15.55-43.84-23-14.92-7-29.85-14.07-45.1-20.38a686.36,686.36,0,0,0-91.82-31.5q-9.65-19.14-19.7-38.1c28.33,10.67,56.64,20.54,84.61,31.34,28.5,10.68,56.67,22.08,84.68,34q20.87,9.22,41.65,18.72c13.74,6.58,27.51,13.13,41.17,19.94,27.34,13.63,54.26,28.19,81.36,42.92a659,659,0,0,0-75.12-54l-19.85-12-20.25-11.32L1393.56,85l-20.9-10.1a711.06,711.06,0,0,0-86.27-34.29c-29.53-9.3-59.59-17-90.29-21.25a3.32,3.32,0,0,0-3.17,1.44q-11.45-21.46-23.41-42.69c24.45,7.24,49.1,13.08,73.58,19.19,26,6.26,51.79,12.83,77.34,20.1a757.23,757.23,0,0,1,75.24,26A568.39,568.39,0,0,1,1467.51,79c-19.84-18.42-42.7-33.65-66.72-46.47A462,462,0,0,0,1325.47,1c-25.85-8.55-52.3-14.87-78.85-20a754.18,754.18,0,0,0-80.29-10.74,3.29,3.29,0,0,0-1.17.13c-2.75-4.82-5.46-9.67-8.25-14.47q-7.87-13.41-16-26.68c23.67,6.68,47.3,13.06,70.76,19.93,25,7.18,49.81,14.83,74.55,22.75s49.22,16.56,73.89,24.89,49.29,17,74.64,24.53c-21.92-14.85-45.35-27-69.27-38.06A684.61,684.61,0,0,0,1291.71-45c-25-8.23-50.51-15.13-76.21-20.87a654.49,654.49,0,0,0-77.94-12.63l-.34,1.82q-14.07-22.8-28.87-45.18c22.73,5.47,45.41,10.62,68,16.09,27.2,6.61,54.4,13.21,81.31,21,53.88,15.36,106.88,33.94,159.41,54.79-48.92-28.37-101.21-51.07-155.17-68.66-27-8.72-54.35-16.51-82.19-22.16a539.56,539.56,0,0,0-77.63-10.47c-5.4-8-10.84-16-16.39-24-3.53-5-7.18-9.81-10.78-14.71,20.68,5.14,41.35,10.16,62,15.26,28.86,7,57.64,14.3,86.4,21.69s57.38,15.38,86,23.43l85.94,24.73q-40.66-18.87-82.89-34.18c-28.06-10.32-56.55-19.5-85.29-27.79s-57.78-15.57-87-21.74c-24.2-5-48.55-9.22-73.08-12.27q-12-15.94-24.49-31.51c22.54,4.39,45.11,7.81,67.62,11.29,7.56,1.22,15.12,2.45,22.71,3.42l22.67,3.45,22.65,3.49,22.56,3.95c30,5.43,59.86,11.91,89.31,20.08a808.92,808.92,0,0,1,87.33,29.21c-26.07-16.75-54.33-30.13-83.37-41.32a671.21,671.21,0,0,0-89.51-26.48l-22.84-4.74-22.92-4.26c-15.35-2.34-30.68-4.74-46.12-6.21a678.19,678.19,0,0,0-79.74-3.65C1023.1-236,1013.22-247.64,1003-259c-1.72-1.91-3.55-3.73-5.29-5.63,21.17,3.56,42.16,5.43,63.2,7.31,25.95,1.72,51.8,4.68,77.61,8.21q38.67,5.56,77.13,13.42c12.81,2.65,25.6,5.53,38.4,8.46s25.44,6.15,37.7,11.12c-11.1-7.22-23.46-12.54-35.79-17.28l-18.61-6.9c-6.28-2.08-12.52-4.31-18.85-6.26a708.2,708.2,0,0,0-77-19.89c-26-5.41-52.41-8.87-78.88-11.45-24.79-1.85-49.83-1.78-74.56,3-11-11.54-22.31-22.8-34.1-33.62,18.94-1.63,37.78-3,56.62-3.77,27.68-1.22,55.32-1.14,82.92.06s55.13,4.07,82.58,8,54.75,9.36,82.19,15.38l0-.12c-25.63-11.56-52.63-20.11-80.14-26.42a497.84,497.84,0,0,0-83.89-11.79,479.44,479.44,0,0,0-84.71,2.49A415.68,415.68,0,0,0,949-312.94q-17.57-15.84-36.24-30.53c20.15-3,40.18-5.67,60.27-7.65,27.56-2.85,55.15-4.39,82.78-4.82s55.27.82,82.91,3.1,55.2,6.12,82.95,10.52l0-.12c-26.27-10-53.72-17-81.56-21.67a499.21,499.21,0,0,0-84.44-6.83,478.52,478.52,0,0,0-84.41,7.47,412.32,412.32,0,0,0-63,16.46c-1.15-.89-2.25-1.85-3.42-2.74q-19.3-14.64-40-27.67c134-33.09,226.92-24.35,226.92-24.35C958-418.22,882.35-387.49,863.43-378.35a453.08,453.08,0,0,0-59.89-31.58,16.53,16.53,0,0,0-22.15,9.47h0a16.37,16.37,0,0,0,9.24,20.78,410.49,410.49,0,0,1,41.31,19.43c-10,23.69-15.49,48.63-19.25,73.74a765.41,765.41,0,0,0-5.84,77.84A730.48,730.48,0,0,0,809-130.78a619.8,619.8,0,0,0,10.86,77c-.41-25.88-.47-51.61.09-77.27s1.92-51.21,3.94-76.68,4.82-50.84,8.45-76.09c2.83-24,5.83-47.85,6.59-72.48q15.24,8.55,29.92,18.24a2.21,2.21,0,0,0-.16.35c-7.62,32.45-9.68,65.62-10.33,98.7q-1.23,49.63.58,99.25c1.24,33.06,4,66,7.5,98.88S874.94,24.6,881.09,57q-5.13-49.23-8-98.5c-2-32.84-2.82-65.72-3.1-98.57s.37-65.7,2.07-98.48c1.8-31.71,4.1-63.27,3.29-95.29,4,2.69,7.88,5.41,11.77,8.21,6.25,4.52,12.35,9.29,18.46,14a3.48,3.48,0,0,0-.46,1.16c-4,22.93-4.92,45.95-5,69,.23,23,.46,46,1.13,69.07s1.33,46,2.37,69q.72,17.25,1.85,34.5c.7,11.49,1.35,23,2.33,34.47,1-11.51,1.74-23,2.49-34.52s1.47-23,2-34.5q1.72-34.5,2.7-69c.77-23,1.11-46,1.44-68.92,0-21.71-.76-43.43-4.16-65.21,10.87,8.68,21.4,17.83,31.76,27.2a3.29,3.29,0,0,0-.71,1.42c-4.45,21.56-5,43.16-4.87,64.77s.25,43.23.68,64.84S940-105,940.74-83.4s1.74,43.24,3.08,64.87c1.8-21.59,3.22-43.19,4.46-64.79s2.23-43.19,3-64.8,1.47-43.2,2.07-64.8c.56-20.09.38-40.19-2.84-60.32,11.27,10.46,22.34,21.17,32.94,32.38,2.33,2.46,4.57,5,6.87,7.49-5.47,12.36-8.87,25.17-11.29,38.13-2.43,14.15-3.43,28.49-4.72,42.76-2.36,28.59-3.22,57.28-2.84,85.92S973.7-9.32,977,19.08c1.55,14.21,3.74,28.33,6,42.42l3.72,21.07,4.42,20.91-3-42.55-1-21.26-.7-21.25c-.72-28.31-.65-56.59.48-84.8s3.16-56.34,6.08-84.36l2.48-21c1-7,1.88-14,2.46-21,.76-7,1.06-14.08,1.2-21.19q.13-5,0-10,19.41,21.45,37.71,44a2.79,2.79,0,0,0-.4.57,164.08,164.08,0,0,0-9.76,31.16,254.38,254.38,0,0,0-4.92,32c-1.75,21.48-3.19,43-3.44,64.54q-.66,32.3,1.34,64.54a644.07,644.07,0,0,0,6.84,64.12L1030,12.94q1.93-31.95,4.63-63.7c2-21.17,3.82-42.32,6.48-63.37,1.24-10.54,2.18-21.1,2.52-31.76a230.24,230.24,0,0,0-.11-25.73c7.9,9.89,15.71,19.86,23.34,30,3.55,4.81,7,9.71,10.5,14.56a3.36,3.36,0,0,0-.31.43c-10.88,23.31-17.43,48.07-21.92,73.11-2.25,12.53-3.7,25.19-5.13,37.83l-1.81,19-1.23,19a681.46,681.46,0,0,0,.21,76.17,577.42,577.42,0,0,0,9.2,75.38c0-25.3.33-50.42,1.42-75.46s3-50,5.63-74.77c1.48-12.4,2.91-24.77,4.6-37.12l5.78-36.91c3.58-22.79,7.18-45.53,9.14-68.95q17.46,24.57,34,49.85c-9,20.87-14.88,42.65-19.32,64.67-4.59,22.21-6.76,44.82-9,67.34q-1.24,16.95-2.08,33.9c-.35,11.32-.56,22.64-.55,33.95a595.89,595.89,0,0,0,4.16,67.7l7.69-67.05c1.3-11.12,2.64-22.22,4.12-33.3s2.88-22.15,4.52-33.18c2.83-22.13,7-44,10-66.12,2.75-19.37,5.27-38.79,6.56-58.62q8.51,13.13,16.79,26.42C1147-22.14,1154-10.4,1160.88,1.38a3.22,3.22,0,0,0-.87.82c-11.68,16.61-18.8,35.18-23.82,54.2-2.42,9.54-4.12,19.24-5.86,28.91s-3.15,19.42-4.15,29.2a463.79,463.79,0,0,0-2.9,58.77,374.89,374.89,0,0,0,5.11,58.44c2.41-19.42,4.79-38.59,7.53-57.63s5.95-37.9,9.57-56.64l5.82-28,6.57-27.79c3.71-16.82,6.91-33.74,8-51.65q15.83,27.26,30.85,55a3.33,3.33,0,0,0-1.54,1.41c-9.42,17.87-15.46,36.78-20.08,56-2.31,9.6-4,19.34-5.6,29.08s-3.2,19.48-4.4,29.28c-2.52,19.58-4.36,39.25-5.33,59a551.63,551.63,0,0,0,0,59.21c4.2-19.33,7.89-38.59,11.69-57.79L1183,183.71l5.89-28.6c2.05-9.51,4.24-19,6-28.56,3.19-17.4,5.8-34.92,6.55-53q13.47,25.14,26.28,50.63c-8.46,21.15-13.82,43.05-17.91,65.15s-6.46,44.66-8.83,67.08c-2.2,22.45-3.76,45-4.52,67.5s-.8,45.1.38,67.64c3.63-22.28,6.86-44.5,10.2-66.67l10.18-66.39,10.71-66.17c2.69-18.52,5-37.1,5.9-56q13.89,27.94,27,56.27a153.12,153.12,0,0,0-16.26,35.31c-4.53,13.39-7,27.37-9.32,41.26a343.73,343.73,0,0,0-3.72,42.1,258.06,258.06,0,0,0,2.35,42.13l8.4-40.91c2.79-13.5,5.74-26.89,9-40.17,3-13.34,7-26.39,10-39.7,2.07-8.83,4.06-17.69,5.63-26.76q11.09,24.21,21.77,48.62a3.38,3.38,0,0,0-1.2,1.12c-8.79,14.27-14.38,29.69-18.68,45.4q-5.91,23.73-9.9,47.88c-5.33,32.14-8.53,64.67-8,97.29,8-31.61,15.18-63,23.11-94.12q5.93-23.36,12.15-46.57a269.83,269.83,0,0,0,7-40.43q10.38,24,20.31,48.29a3.51,3.51,0,0,0-3.17,1.24c-10.16,12.54-15,27-18.09,41.78s-6,29.61-7.91,44.58a447.49,447.49,0,0,0-3.83,45,359.64,359.64,0,0,0,.93,45.13l8.94-43.94q4.59-21.81,9.57-43.38c3.45-14.36,6.9-28.68,10.81-42.87,3.59-12.63,6.46-25.32,6.15-39.19q9.06,22.43,17.66,45a3.53,3.53,0,0,0-3.64,1.43c-8.79,12.49-11.39,26.72-13,40.89a417.34,417.34,0,0,0-3.58,42.65,402.31,402.31,0,0,0,.76,42.68,359.66,359.66,0,0,0,5.55,42.19c.69-14.16,1.44-28.2,2.63-42.16s2.54-27.84,4.33-41.65,3.93-27.52,6.41-41.16c2.39-11.78,4.83-23.38,4-35.92q9.24,24.56,17.88,49.32c4.62,23.88,12,46.45,19.63,68.83l12,33.78c3.9,11.28,7.38,22.68,11,34,6.9,22.8,12.88,45.89,17.58,69.32a626.21,626.21,0,0,1,10,71.4c3.35-24.07,3.57-48.65,1.62-73a477.12,477.12,0,0,0-11.71-72.43c-2.71-11.93-6.12-23.68-9.6-35.38s-7.18-23.35-11.53-34.72c-8.56-22.34-18.83-43.94-32.3-64.05Q1353.59,395,1344,367.49c27,31.92,55.71,61.53,80.83,94.51a621,621,0,0,1,39.42,57.37,548.82,548.82,0,0,1,32.57,62.09,357.85,357.85,0,0,0-24.4-66.51,457.27,457.27,0,0,0-36-61.42c-27.23-38.87-58.79-75.2-97.7-102.62-.2-.14-.46-.11-.68-.2q-7.12-19.86-14.58-39.61c16.58,13.74,33.49,26.72,50.32,39.81l29.52,23,14.51,11.82,14.34,12q28.52,24.3,55.6,50.39t53,53.59a673.12,673.12,0,0,0-46.49-59.83,757.81,757.81,0,0,0-52.73-54.68c-9.21-8.72-18.79-17-28.38-25.33l-14.61-12.2-15-11.67c-20.36-15.11-41.8-28.85-64.94-39.54q-8.85-23-18.07-45.91C1318,267.11,1336.81,279.89,1355.6,292.23Z" transform="translate(219 411.31)"/><path class="cls-3" d="M2249.1,365.41c2.79,15.9,0,30.9-4.48,45.31s-9.13,28.8-14.74,42.81a444.2,444.2,0,0,1-18.53,41.23,357.78,357.78,0,0,1-22.73,39L2202.14,491q6.6-21.3,12.71-42.57c4-14.23,7.9-28.42,11.38-42.73,2.84-12.12,6.29-24,12.62-35.39q-17.85,14.54-35.38,29.4a3.5,3.5,0,0,1,1.59,2.55c1.62,15.19-3,28.9-8.48,42.07a415.21,415.21,0,0,1-17.58,39,402,402,0,0,1-21.4,36.94,357.86,357.86,0,0,1-25.34,34.18c6.27-12.71,12.43-25.34,18.17-38.13s11.31-25.57,16.45-38.5,9.93-26,14.39-39.1c3.29-10.38,6.5-20.66,12.15-30.35-12.1,10.44-24.12,21-35.94,31.69l-.21.19-.13.11c-38.72,28.73-76.44,58.73-111.58,91.92,32.08-36.06,68.58-68,105.31-99.25,12.85-12.4,26-24.4,39.27-36.23-37.87,14.13-76,25.83-112.73,41.91a622,622,0,0,0-62.32,31,550,550,0,0,0-58.64,38.46,358.86,358.86,0,0,1,53.64-46.29,455.5,455.5,0,0,1,61.3-36.2c42.2-20.53,86.92-36.78,133.67-42q15.75-13.69,31.74-27.13c-20.32,3.74-40.57,6.75-60.82,9.89l-37,5.76-18.43,3.29L2102.19,379q-36.72,7.4-73.07,17t-72.4,21.08a674.47,674.47,0,0,1,69.7-29.73,755.22,755.22,0,0,1,72.65-22.17c12.28-3.16,24.69-5.77,37.11-8.36l18.69-3.57,18.81-2.9c24.51-3.24,49.29-4.78,74.08-3.1,12.64-10.48,25.48-20.73,38.34-30.95-21.83,4-43.89,5.94-65.76,7.55-27,2-53.76,2.94-80.27,5.93-53.09,5.82-105.52,17.87-157.05,34.89,47.89-25.66,100.81-42.44,155-50.54a673.64,673.64,0,0,1,81.49-6.65c26.25-.68,52.26-.8,78.48-.75,9.14-7.17,18.45-14.12,27.69-21.16l-73.53-1.81c-27.38-.7-54.78.63-82.2.67-27,.75-53.85,4.72-80.48,10.69-13.27,3.21-26.49,7.17-39.84,10.57L2009.4,316c12.42-6.23,25.34-11.2,38.16-16.54l19.37-7.71c6.48-2.55,12.9-5.2,19.61-7.24a329.37,329.37,0,0,1,82.75-15.76c27.79-.88,55.63-2,83.46-.07a598.5,598.5,0,0,1,81.54,10.46c4.63-3.48,9.16-7.09,13.8-10.54,4.93-3.66,9.9-7.26,14.86-10.88-26.86,1.83-53.75,1.28-80.43.12-30.84-1.32-61.44-4-92-5.26-61-2.57-122.44-.88-182.08,16,28.08-13,58.5-21.31,89.29-26.19s62.12-6.35,93.2-6.1,62,2,92.71,4.72c30,2.64,59.86,5.61,89.85,9q16.79-12.14,33.79-24c-21.27.55-42.49.38-63.71.07l-74.66-1.5c-24.84-.43-49.63-.65-74.46-.34s-49.67,1.14-74.82,2.17c24.13-7.19,49.06-11.58,74.08-14.32a664.07,664.07,0,0,1,75.36-3.73q37.68.16,75.15,2.94c24.48,1.75,48.94,4.12,73.33,7.6q14.51-10,29.17-19.79c-30.18-2.46-60.2-5-90.24-6.85-8.13-.35-16.25-.89-24.36-1.39l-24.38-1.06-24.37-.93-24.39-.54c-32.53-.68-65.09-.33-97.72.41s-65.28,2.36-98.18,3.64a773.15,773.15,0,0,1,97.32-16.53,932.2,932.2,0,0,1,98.72-5.46c16.5,0,33,.54,49.48,1.21,16.46,1.09,32.93,2.2,49.32,4.09a683.84,683.84,0,0,1,97.3,17.48l.23.11q15.17-10,30.49-19.73c-27.69-4.19-55.07-8.86-82.57-12.7-30.11-4.5-60.27-8.22-90.53-11.41q-22.73-2.08-45.51-3.87c-15.2-.93-30.41-1.88-45.67-2.56-30.52-1.38-61.12-1.72-92-2a658.77,658.77,0,0,1,91.91-10.76l23.17-.82,23.2-.07,23.21.5,23.18,1.32a712.86,712.86,0,0,1,92.06,11.92c30,6.15,59.68,13.93,88.27,25q18.6-11.7,37.43-23c-24-5.44-47.5-12-71-18.35-25.76-7.15-51.51-13.94-77.38-20a756.42,756.42,0,0,0-78.41-13.79,567,567,0,0,0-80.1-3.72c26.29-6.47,53.67-8.68,80.9-8.22a461.7,461.7,0,0,1,81.15,9c26.75,5.08,52.95,12.4,78.65,20.81A752.7,752.7,0,0,1,2540.53,140c7.4-4.39,14.81-8.76,22.27-13.05s15-8.44,22.49-12.59c-21.9-5.22-43.67-10.56-65.52-15.5C2494.43,93,2469,87.64,2443.56,82.55s-51.07-9.43-76.68-14.13-51.33-9.11-77.17-14.82c26.38-2.33,52.77-1.59,79.05.38A688.11,688.11,0,0,1,2447,65.05c25.87,5,51.49,11.31,76.75,18.77a666.6,666.6,0,0,1,70.92,25.43Q2619,96.07,2643.9,83.81c-24.68-6.76-49.06-14-73.55-20.72-27-7.43-54-14.88-81.26-21.17-54.56-12.74-109.91-22.24-166-29.53,56.54-1,113.28,4.52,169,15.35,27.84,5.49,55.54,12,82.61,20.55,26.8,8.46,53.15,18.45,78.3,31.08q22.59-10.91,45.61-20.91c-23.41-6.24-46.7-12.7-70-19-28.63-7.9-57.32-15.5-86.06-23S2484.93,2,2456-4.87L2368.85-25q44.71,3.24,89.05,10.38C2487.45-10,2516.81-4.19,2546,2.52S2604,17,2632.61,25.8c26.11,8.19,51.94,17.27,77.21,27.8,12.9-5.47,25.92-10.66,39-15.68-25.19-7.85-49.76-16.92-74.26-26-7.2-2.61-14.4-5.21-21.51-8l-21.5-8L2610.07-12l-21.63-7.5c-28.89-9.84-58.12-18.67-87.82-25.83a808.38,808.38,0,0,0-90.53-16.89c30.92-2,62.12,0,92.95,4.38a673.35,673.35,0,0,1,91.1,20.32l22.27,7,22.1,7.41c14.55,5.41,29.12,10.75,43.33,17a661.06,661.06,0,0,1,78.64,39.7c12.22-4.54,24.48-8.94,36.86-13.06,6.43-2.09,12.9-4.06,19.36-6.06-22.95-7.61-44.48-17.18-66.08-26.78-23.52-11.1-47.55-21.07-71.83-30.52q-36.51-13.92-73.94-25.73c-12.49-3.91-25.06-7.6-37.67-11.25s-25.23-7-38.35-8.6c13.2-.92,26.59.44,39.67,2.28l19.62,3c6.5,1.23,13,2.31,19.52,3.68a710.52,710.52,0,0,1,77,20c25.38,7.91,50.13,17.7,74.52,28.3,24.12,11.15,47.47,24.28,67.71,42.16l-.17.29q16.2-4.87,32.52-9.27c3.92-1,7.88-1.89,11.81-2.86-18.33-12.46-36.65-24.59-55.39-36q-35.4-21.76-72.51-40.22c-24.75-12.29-50.16-23.22-76.06-33.15s-52.39-18.41-79.31-26.48l0-.12c28,2.34,55.78,8,82.9,15.83a499.25,499.25,0,0,1,79.05,30.44,480.73,480.73,0,0,1,72.83,43.32A407.63,407.63,0,0,1,2875.2-1.91c15.54-3.74,31.12-7.27,46.81-10.27-18.09-13.93-36.17-27.54-54.73-40.4q-34.07-23.81-70-44.41c-24-13.73-48.71-26.13-74-37.56s-51.22-21.47-77.61-31.1l0-.12c27.84,4,55.21,11.25,81.82,20.67a499.36,499.36,0,0,1,77.13,35,480.67,480.67,0,0,1,70.16,47.53,405.17,405.17,0,0,1,51,49.69c17-3.21,34.17-5.77,51.36-7.8C2874.91-116.45,2788-154.56,2788-154.56c131.82,53.39,181.58,121.27,189.93,133.81a714.58,714.58,0,0,1,72.14-4.92,1,1,0,0,1,1,.92,1,1,0,0,1-.91,1.14C3029.1-21,3008.1-18,2987.27-14.1a3.25,3.25,0,0,1,.3,1.64c-2.61,26.24-10.09,51.34-19.23,75.71a763.6,763.6,0,0,1-32.7,70.87,732.17,732.17,0,0,1-39.71,67,619.34,619.34,0,0,1-46.88,62c12.94-22.43,25.49-44.89,37.45-67.59s23.2-45.7,33.81-68.94,20.48-46.79,29.57-70.62c9.46-23,18.69-46.11,30.51-68.69Q2962.15-9,2944.05-4.9a3.27,3.27,0,0,1,.65,3c-9.11,32.06-23.41,62.06-38.91,91.29s-31.61,58.17-48.72,86.48-35.58,55.77-54.58,82.79-39.25,53.16-60.37,78.5q28.4-40.55,54.87-82.2c17.75-27.7,34.39-56.08,50.59-84.65s31.58-57.61,46-87.09C2907.72,54,2921.28,24.64,2938-3.49l-3.65.85h0c-3.2.76-6.41,1.44-9.6,2.24-8.38,2.15-16.72,4.46-25,6.81a3.35,3.35,0,0,1,.94,3.59c-7.61,22-18,42.56-29.12,62.72-11.38,20-22.76,40-34.53,59.83s-23.53,39.6-35.61,59.2q-9,14.73-18.37,29.25c-6.2,9.71-12.34,19.45-18.78,29,4.69-10.57,9.66-21,14.59-31.39s9.89-20.82,15-31.13q15.26-31,31.13-61.59c10.49-20.46,21.35-40.7,32.22-60.95,10.93-19.71,22.56-39,36.82-57-12.71,3.65-25.33,7.58-37.91,11.65a3.35,3.35,0,0,1,.28,2.64c-6.58,21-16.58,40.16-27.21,59s-21.21,37.66-32.09,56.35-21.76,37.36-32.93,55.88-22.52,37-34.2,55.21c8.91-19.75,18.16-39.32,27.57-58.79s19-38.85,28.82-58.12S2806,93.28,2816,74.1c9.37-18,19.39-35.7,32.18-51.88-15,5-29.93,10.1-44.74,15.6-2.87,1.07-5.72,2.21-8.58,3.3-.93,14.66-4.48,28.55-9,42.07-4.75,13.55-10.84,26.57-16.65,39.67-11.82,26.14-25,51.63-39.25,76.48s-29.72,49-46.36,72.22c-8.25,11.66-17,22.95-25.84,34.16l-13.48,16.61-14,16.14,23.31-35.73,11.2-18.11,10.93-18.22c14.38-24.41,28.05-49.16,40.77-74.37s24.6-50.78,35.66-76.69l8-19.55c2.51-6.58,5.13-13.11,8-19.53,2.73-6.49,5.91-12.82,9.24-19.11,2.12-4.06,4.45-8.06,6.93-12q-24.27,9.42-48.2,19.65a164.43,164.43,0,0,1-6.56,31.58,253.83,253.83,0,0,1-11.22,30.32c-8.91,19.63-18.09,39.13-28.34,58.08q-15.11,28.56-32.52,55.78a640,640,0,0,1-37.13,52.72l28.09-57.75q13.82-28.87,26.89-57.93c8.57-19.46,17.21-38.85,25.11-58.55,4-9.81,8.35-19.5,13.23-29,3.45-6.93,7.12-13.77,11.31-20.45q-29.25,12.76-58,26.6c-2.09,24.55-8.17,48.35-16.07,71.45-4.12,12.05-9,23.81-13.89,35.56l-7.64,17.48L2621.24,238a677.74,677.74,0,0,1-37.17,66.47,578,578,0,0,1-44.65,61.42c12.31-22.08,24.2-44.23,35.41-66.64s21.66-45.12,31.39-68.1c4.73-11.55,9.49-23.06,14-34.68l12.88-35.07c7.38-20.12,14.74-40.21,23.48-60.13q-26.4,12.89-52.44,26.56c-2.5,21.16-7.58,41.73-14,61.84-6.78,21.64-15.86,42.46-24.87,63.23q-7.14,15.42-14.64,30.64c-5.19,10.07-10.5,20.06-16,29.94a595.61,595.61,0,0,1-36.52,57.16L2524,308.25q6.41-15.54,12.57-31.12t12.17-31.19c8.27-20.72,15.28-41.88,23.37-62.65,6.35-16.53,12.84-33,20.31-49.3-6.6,3.51-13.2,7-19.77,10.57-13.53,7.36-26.94,14.94-40.3,22.62,1.8,19.58-.93,38.69-5.64,57.19-2.52,9.51-5.75,18.82-8.92,28.13S2511.08,271,2507.21,280a468,468,0,0,1-26,52.78,376.24,376.24,0,0,1-32.86,48.6c7.32-18.14,14.55-36.06,21.41-54s13.21-36,19.15-54.16l8.51-27.31,7.75-27.49c4.52-15.1,9.44-30.06,16.15-44.9q-25.77,15-51.09,30.87s0,0,0,.06c-.43,20.2-4.34,39.66-9.63,58.68-2.64,9.52-5.92,18.84-9.23,28.14S2444.71,309.86,2441,319q-10.95,27.51-24,54.12a553,553,0,0,1-28.79,51.75c5.72-18.94,11.84-37.57,17.85-56.19L2424,312.94l8.74-27.86c2.83-9.31,5.51-18.65,8.67-27.86a394,394,0,0,1,18.45-46.33q-23.34,14.75-46.28,30.13c-3,21.93-8.73,43.08-15.69,63.8-7.34,21.33-16.05,42.17-24.86,62.93q-13.48,31-28.84,61.19C2333.87,449,2323,468.75,2311,487.89c7.65-21.25,15.62-42.24,23.47-63.24l23.35-63,22.77-63.05c6.33-16.65,13-33.17,20.82-49.38q-22.52,15.3-44.67,31.12c-1.67,1.2-3.32,2.42-5,3.63a154.15,154.15,0,0,1-3,37.62c-2.55,13.91-7.22,27.31-11.9,40.6a344.26,344.26,0,0,1-17.19,38.61,257.71,257.71,0,0,1-22.52,35.67l12.53-39.83c4.12-13.15,8-26.29,11.63-39.49,3.88-13.11,6.7-26.47,10.54-39.57,2.34-8.23,4.76-16.46,7.58-24.67q-21.08,15.38-41.86,31.18a3.11,3.11,0,0,1,.21.85c.76,16.75-1.84,32.94-5.72,48.77q-6.36,23.61-14.6,46.65c-10.95,30.69-23.95,60.68-40.28,88.93,8.36-31.52,17.32-62.43,25.52-93.5q6.16-23.29,12-46.61a273.74,273.74,0,0,1,12.85-37.41q-20.1,15.45-39.84,31.36A3.47,3.47,0,0,1,2249.1,365.41Z" transform="translate(219 411.31)"/><path class="cls-3" d="M557.7,610.47c-3.75,15.69-1.88,30.84,1.71,45.5s7.35,29.3,12.09,43.63a450.26,450.26,0,0,0,16,42.28,359.5,359.5,0,0,0,20.31,40.32L596.9,738.7q-5.28-21.66-10.09-43.27c-3.07-14.44-6.14-28.85-8.74-43.34-2.09-12.27-4.81-24.33-10.43-36.1q16.92,15.6,33.51,31.51a3.51,3.51,0,0,0-1.74,2.45c-2.54,15.06,1.25,29,5.89,42.51a416.4,416.4,0,0,0,15.17,40,399.82,399.82,0,0,0,19.1,38.18,357.72,357.72,0,0,0,23.2,35.67c-5.48-13.07-10.86-26.05-15.81-39.17s-9.72-26.21-14.06-39.44-8.32-26.52-12-39.9c-2.65-10.56-5.22-21-10.26-31q17.16,16.74,33.93,33.83l.2.2.12.12c36.89,31,72.71,63.3,105.75,98.57-29.81-38-64.29-72.07-99-105.5-12.06-13.16-24.45-25.94-37-38.56,36.94,16.41,74.27,30.42,110,48.72a620.13,620.13,0,0,1,60.32,34.75,548.2,548.2,0,0,1,56.17,42,357.39,357.39,0,0,0-50.71-49.48,456.21,456.21,0,0,0-59-39.88c-40.87-23.07-84.51-42-130.86-50.13q-14.88-14.64-30-29c20.06,5,40.09,9.21,60.11,13.58l36.55,8,18.19,4.41,18.13,4.68q36.21,9.62,71.9,21.48t71,25.46a673.37,673.37,0,0,0-67.75-33.93,756.18,756.18,0,0,0-71.17-26.57c-12.06-3.9-24.29-7.27-36.53-10.61l-18.44-4.71-18.59-4c-24.27-4.73-48.91-7.78-73.75-7.62-12-11.23-24.17-22.24-36.38-33.23,21.54,5.28,43.45,8.61,65.17,11.55,26.79,3.67,53.49,6.22,79.76,10.83,52.63,9,104.23,24.27,154.63,44.41-46.24-28.54-98-48.52-151.65-59.91a671.42,671.42,0,0,0-80.93-11.62c-26.16-2.28-52.12-4-78.28-5.54-8.69-7.72-17.56-15.23-26.35-22.82l73.5,2.69c27.37,1,54.64,4,82,5.69,26.86,2.4,53.46,8,79.67,15.59,13.05,4,26,8.77,39.12,13L800,575.74c-12-7-24.61-12.72-37.08-18.84L744,548c-6.31-2.94-12.55-6-19.13-8.43a329.09,329.09,0,0,0-81.62-20.77c-27.7-2.58-55.41-5.43-83.31-5.18a599.52,599.52,0,0,0-82,5.46c-4.4-3.76-8.7-7.63-13.13-11.36-4.69-3.95-9.43-7.85-14.16-11.77,26.7,3.46,53.57,4.56,80.27,5,30.87.58,61.58-.25,92.17.38,61,1.15,122.26,6.6,180.75,27.13-27.23-14.75-57.09-24.84-87.52-31.6s-61.61-10.13-92.65-11.78-62-1.82-92.83-.95c-30.14.8-60.09,1.94-90.23,3.45q-16-13.12-32.26-26c21.19,1.84,42.38,3,63.58,4l74.61,3.06c24.82,1.09,49.59,2.38,74.35,4.21s49.5,4.17,74.54,6.73c-23.64-8.65-48.25-14.55-73.07-18.82a668.44,668.44,0,0,0-75-8.32q-37.62-2.13-75.19-1.66c-24.55.26-49.11,1.12-73.66,3.11q-13.87-10.87-27.91-21.53c30.28-.62,60.4-1.29,90.49-1.33,8.14.15,16.28.1,24.41.1l24.39.43,24.39.56,24.37.95c32.52,1.31,65,3.65,97.51,6.38s65,6.34,97.77,9.64a770.39,770.39,0,0,0-96.12-22.45,934.59,934.59,0,0,0-98.2-11.48c-16.47-1-33-1.48-49.46-1.82-16.5.08-33,.19-49.48,1.07A683.14,683.14,0,0,0,362.5,426c-.09,0-.16.07-.24.09q-14.52-10.9-29.23-21.55c27.9-2.5,55.52-5.48,83.2-7.63,30.32-2.66,60.66-4.53,91.06-5.87q22.82-.69,45.65-1.08c15.23,0,30.48,0,45.75.23,30.54.5,61.11,2,91.91,3.62a658.54,658.54,0,0,0-91.08-16.35l-23.08-2.24-23.15-1.49-23.2-.92-23.21-.1A713.73,713.73,0,0,0,414.26,379c-30.31,4.31-60.42,10.25-89.63,19.51q-17.85-12.83-35.95-25.28c24.25-4,48.14-9.11,72-14,26.16-5.57,52.27-10.77,78.46-15.23a755,755,0,0,1,79.11-9,567.18,567.18,0,0,1,80.18,1.18c-25.85-8.06-53-11.94-80.25-13.15a462.2,462.2,0,0,0-81.55,4c-27,3.43-53.6,9.14-79.77,16a754.15,754.15,0,0,0-76.24,24.64c-7.12-4.83-14.25-9.65-21.43-14.39s-14.43-9.33-21.69-13.93c22.18-3.87,44.25-7.88,66.35-11.48,25.65-4.3,51.34-8.11,77.07-11.63s51.55-6.3,77.4-9.43,51.79-5.95,77.92-10.07c-26.18-3.94-52.57-4.82-78.91-4.45a682.93,682.93,0,0,0-78.76,6.27c-26.14,3.38-52.09,8.14-77.76,14.05a665.58,665.58,0,0,0-72.34,21q-23.5-14.66-47.59-28.39c25-5.25,49.82-10.93,74.68-16.2,27.38-5.76,54.77-11.55,82.39-16.16,55.24-9.39,111.06-15.49,167.45-19.34-56.37-4.49-113.34-2.41-169.61,5-28.12,3.78-56.16,8.55-83.71,15.46-27.26,6.81-54.17,15.17-80,26.25Q150.13,288,127.76,276.62c23.74-4.79,47.39-9.82,71-14.7,29.06-6.14,58.17-12,87.31-17.71s58.4-10.88,87.71-16L462,213.47q-44.83.53-89.52,4.92c-29.77,2.8-59.43,6.81-88.94,11.72S224.72,241,195.65,248.06c-26.55,6.58-52.89,14.07-78.76,23-12.54-6.25-25.22-12.22-38-18,25.62-6.29,50.7-13.84,75.7-21.38,7.35-2.16,14.69-4.32,22-6.71l21.95-6.67,21.93-6.63,22.06-6.16c29.44-8.06,59.15-15.08,89.23-20.42a809.76,809.76,0,0,1,91.39-11.32c-30.74-3.87-62-3.74-93-1.31a673.48,673.48,0,0,0-92.17,14.72l-22.65,5.58-22.51,6.05c-14.86,4.51-29.73,8.95-44.29,14.29a661,661,0,0,0-80.92,34.83c-11.92-5.28-23.9-10.43-36-15.29-6.3-2.48-12.63-4.84-19-7.24C36,219.2,58.06,211,80.21,202.7c24.15-9.64,48.74-18.12,73.55-26.07q37.29-11.67,75.38-21.17c12.7-3.14,25.47-6.05,38.29-8.93s25.6-5.43,38.8-6.23c-13.12-1.73-26.57-1.19-39.74-.16L246.73,142c-6.56.83-13.16,1.52-19.71,2.48A710.5,710.5,0,0,0,149,159.72c-25.8,6.34-51.11,14.6-76.1,23.7C48.09,193.07,24,204.75,2.69,221.36l.15.3Q-13,215.81-29,210.42c-3.86-1.25-7.75-2.37-11.62-3.57,19.06-11.32,38.09-22.31,57.49-32.55q36.66-19.58,74.83-35.72c25.46-10.75,51.49-20.11,77.94-28.44S223,95,250.37,88.56v-.12c-28.12.62-56.16,4.56-83.71,10.73a498.68,498.68,0,0,0-80.76,25.56,478.31,478.31,0,0,0-75.34,38.79,406.23,406.23,0,0,0-55.34,42.07c-15.28-4.69-30.62-9.16-46.09-13.12,18.91-12.8,37.78-25.28,57.1-37q35.45-21.69,72.6-40.05C63.6,103.2,89,92.33,115,82.47s52.44-18.3,79.37-26.3l0-.12c-28,2.27-55.79,7.86-82.93,15.64A497.68,497.68,0,0,0,32.25,102,479.09,479.09,0,0,0-40.68,145.1a406,406,0,0,0-53.94,46.48q-25.2-6.36-50.78-10.93c107.9-89.38,197-122.11,197-122.11-134.83,45.24-188.65,110-197.74,122a714.63,714.63,0,0,0-71.71-9.32A1,1,0,0,0-219,172a1,1,0,0,0,.84,1.2c20.91,3.91,41.68,8.2,62.24,13.34a3.3,3.3,0,0,0-.4,1.62c1,26.35,6.93,51.86,14.56,76.74a764.84,764.84,0,0,0,28.32,72.74A731.39,731.39,0,0,0-77.88,407a617.8,617.8,0,0,0,43,64.73c-11.54-23.17-22.7-46.36-33.25-69.75s-20.37-47-29.53-70.88-17.59-47.94-25.2-72.29c-8-23.58-15.84-47.17-26.26-70.43q18,4.76,35.79,10a3.33,3.33,0,0,0-.83,2.91c7.13,32.57,19.58,63.38,33.27,93.5s28,60,43.34,89.3,32.1,57.84,49.42,86,35.93,55.45,55.46,82q-25.86-42.19-49.74-85.4c-16-28.74-30.91-58.07-45.33-87.59s-28-59.43-40.62-89.73c-12.3-30-24-60.12-39-89.22l3.6,1.07h0c3.14,1,6.31,1.83,9.44,2.82,8.24,2.66,16.42,5.48,24.58,8.32a3.36,3.36,0,0,0-1.16,3.53c6.25,22.43,15.39,43.58,25.24,64.39,10.13,20.67,20.27,41.35,30.81,61.83s21.06,40.95,31.93,61.26q8.09,15.25,16.55,30.32c5.59,10.07,11.13,20.16,17,30.1-4-10.84-8.37-21.52-12.65-32.22s-8.59-21.39-13.07-32Q11.53,367.75-2.46,336.22c-9.21-21.06-18.82-41.93-28.43-62.8C-40.6,253.08-51,233.08-64.17,214.28-51.7,218.7-39.35,223.4-27,228.23a3.33,3.33,0,0,0-.44,2.61c5.29,21.37,14.1,41.11,23.56,60.54S15,330.27,24.66,349.58s19.45,38.62,29.47,57.8,20.21,38.26,30.75,57.19C77.19,444.31,69.16,424.22,61,404.2s-16.63-39.94-25.22-59.77S18.43,304.82,9.65,285.07C1.4,266.5-7.53,248.25-19.3,231.32c14.67,5.86,29.26,11.91,43.7,18.3,2.8,1.24,5.57,2.56,8.37,3.82,0,14.69,2.72,28.77,6.4,42.54,3.91,13.81,9.2,27.18,14.19,40.61,10.21,26.81,21.81,53.06,34.51,78.74s26.67,50.69,41.86,74.91c7.52,12.15,15.59,24,23.7,35.68l12.44,17.4,13,17L157.8,523.2l-10.06-18.76-9.8-18.86c-12.86-25.23-25-50.77-36.15-76.71s-21.46-52.19-30.91-78.73l-6.81-20c-2.1-6.72-4.32-13.4-6.84-20-2.32-6.65-5.1-13.15-8-19.64q-2.8-6.27-6.18-12.41Q66.66,269,89.91,280.66a164.25,164.25,0,0,0,4.62,31.92,254.77,254.77,0,0,0,9.34,30.95c7.7,20.14,15.67,40.17,24.74,59.71q13.33,29.42,29,57.65a640.91,640.91,0,0,0,33.84,54.9L167,456.43Q155,426.78,143.69,397c-7.36-19.94-14.8-39.82-21.49-60-3.42-10-7.13-20-11.42-29.74-3-7.12-6.27-14.18-10-21.1q28.39,14.52,56.27,30.1c.58,24.63,5.2,48.76,11.67,72.29,3.38,12.28,7.53,24.32,11.69,36.34l6.56,17.92L194,460.5a679.61,679.61,0,0,0,33.05,68.63,578.22,578.22,0,0,0,40.81,64c-10.94-22.8-21.45-45.63-31.27-68.68s-18.87-46.37-27.18-69.89c-4-11.82-8.06-23.6-11.85-35.47l-10.71-35.8c-6.14-20.52-12.26-41-19.77-61.45q25.57,14.47,50.73,29.72c1.19,21.27,5,42.11,10.18,62.58,5.44,22,13.23,43.35,20.95,64.62q6.18,15.84,12.74,31.49c4.57,10.36,9.26,20.66,14.15,30.86a595.15,595.15,0,0,0,33,59.28l-22-63.81q-5.44-15.89-10.65-31.82T266,472.91c-7-21.18-12.69-42.73-19.5-64-5.32-16.88-10.8-33.72-17.26-50.44,6.37,3.9,12.75,7.79,19.09,11.75,13,8.17,26,16.56,38.85,25.05-3,19.43-1.44,38.66,2.13,57.42,1.93,9.65,4.59,19.14,7.19,28.62s5.53,18.87,8.85,28.12A465.18,465.18,0,0,0,328,563.75a375.49,375.49,0,0,0,29.83,50.51c-6.2-18.55-12.33-36.88-18.07-55.23s-11-36.77-15.8-55.24L317.16,476l-6.06-27.91c-3.58-15.35-7.59-30.58-13.38-45.81q24.81,16.59,49.11,33.94s0,0,0,.06c-.8,20.18,1.91,39.85,6,59.16,2,9.66,4.75,19.16,7.49,28.65s5.52,19,8.66,28.32c6.17,18.75,13,37.28,20.63,55.48a552.75,552.75,0,0,0,25.57,53.41c-4.55-19.25-9.53-38.22-14.39-57.17l-14.44-56.74-7-28.34c-2.25-9.47-4.36-19-6.94-28.34a396.88,396.88,0,0,0-15.59-47.38q22.4,16.15,44.35,32.91c1.62,22.07,6.09,43.53,11.76,64.64,6,21.74,13.45,43.07,21,64.33q11.55,31.8,25,62.84c9.05,20.66,18.73,41,29.52,60.86-6.33-21.67-13-43.11-19.56-64.55L449.45,600.1l-18.88-64.32c-5.3-17-10.93-33.9-17.77-50.56q21.54,16.65,42.69,33.79l4.76,3.92a154.11,154.11,0,0,0,.69,37.74c1.69,14,5.53,27.7,9.39,41.25a344.79,344.79,0,0,0,14.8,39.59,259.32,259.32,0,0,0,20.3,37L495.36,638c-3.31-13.38-6.42-26.74-9.2-40.13-3.07-13.33-5.06-26.83-8.11-40.14-1.82-8.36-3.74-16.72-6.05-25.08q20.1,16.62,39.87,33.68a3.34,3.34,0,0,0-.26.83c-1.78,16.67-.17,33,2.73,49q4.92,24,11.73,47.47c9,31.3,20.2,62,34.77,91.21-6.42-32-13.47-63.36-19.76-94.88q-4.73-23.62-9.13-47.26a274.07,274.07,0,0,0-10.54-38.12q19.11,16.65,37.84,33.73A3.52,3.52,0,0,0,557.7,610.47Z" transform="translate(219 411.31)"/></g><path class="cls-4" d="M1380.86,2155.89c24.53,1.84,49.13,3.26,73.77,4.11H1390Q1385.42,2158,1380.86,2155.89Z" transform="translate(219 411.31)"/><path class="cls-4" d="M3840,803.09V1885.78q-3.61,88.88-7.24,177.76c-2.06,50.69,10,92.6-49,96.46-13.46.88-27.29,0-40.78,0H1556.8c68.41-2.61,136.39-11,202.67-27.91,123.07-31.44,240.6-94.33,322.22-191.66,30.84-36.77,55.94-77.53,79.36-119.47,23.89-42.78,46-86.78,70.73-129,48.91-83.69,113-164.86,203.36-200,80.83-31.47,172.42-21.67,255.22,4.16,143.33,44.73,274,154.74,430.77,118.15,70.88-16.55,135.41-54.23,192.15-99.83C3544.13,1328.84,3645.63,1025,3840,803.09Z" transform="translate(219 411.31)"/><path class="cls-5" d="M2759.91,2160H1556.8c-34,1.3-68.11,1.19-102.17,0H52.93c68-44.9,123.09-119.88,198.74-147.22a664.2,664.2,0,0,1,287.51-36.1c88.18,8.45,174,34.5,262.32,41.8,179,14.81,358.56-49.62,505.41-153.11,69.24-48.79,132.95-106.51,208.85-144.11s169.71-52.42,244.1-11.92c37.73,20.55,68.2,54,108.48,69,43.08,16,90.84,8.62,136.67,12.09,122.16,9.23,238.56,92.47,342.38,150.87,120,67.52,246.5,122.85,366.09,191.21Q2736.84,2145.81,2759.91,2160Z" transform="translate(219 411.31)"/></g></g></svg>